<svg width="27" height="31" viewBox="0 0 27 31" fill="none" xmlns="http://www.w3.org/2000/svg">
<g clip-path="url(#clip0_142_409)">
<path d="M3.80606 1.97217C1.70678 1.97217 0 3.65459 0 5.72392V24.4827C0 26.552 1.70678 28.2344 3.80606 28.2344H22.8364C24.9357 28.2344 26.6424 26.552 26.6424 24.4827V5.72392C26.6424 3.65459 24.9357 1.97217 22.8364 1.97217H3.80606ZM12.9644 16.0236L3.81796 10.2026C3.925 9.26463 4.72784 8.53773 5.70909 8.53773H20.9333C21.9146 8.53773 22.7174 9.26463 22.8245 10.2026L13.678 16.0236C13.571 16.094 13.4461 16.1292 13.3212 16.1292C13.1963 16.1292 13.0714 16.094 12.9644 16.0236ZM14.7128 17.6006L22.8364 12.4302V19.793C22.8364 20.8306 21.986 21.6689 20.9333 21.6689H5.70909C4.65648 21.6689 3.80606 20.8306 3.80606 19.793V12.4302L11.9296 17.6006C12.3459 17.8644 12.8276 18.005 13.3212 18.005C13.8148 18.005 14.2965 17.8644 14.7128 17.6006Z" fill="white"/>
</g>
<defs>
<clipPath id="clip0_142_409">
<rect width="26.6424" height="30.014" fill="white" transform="translate(0 0.0961914)"/>
</clipPath>
</defs>
</svg>
