<svg width="27" height="30" viewBox="0 0 27 30" fill="none" xmlns="http://www.w3.org/2000/svg">
<g clip-path="url(#clip0_142_403)">
<path d="M23.4375 1.875H2.8125C1.25977 1.875 0 3.13477 0 4.6875V25.3125C0 26.8652 1.25977 28.125 2.8125 28.125H23.4375C24.9902 28.125 26.25 26.8652 26.25 25.3125V4.6875C26.25 3.13477 24.9902 1.875 23.4375 1.875ZM16.248 24.3574C15.7559 24.4453 15.5742 24.1406 15.5742 23.8887C15.5742 23.5723 15.5859 21.9551 15.5859 20.6484C15.5859 19.7344 15.2812 19.1543 14.9238 18.8496C17.0918 18.6094 19.377 18.3105 19.377 14.5664C19.377 13.5 18.9961 12.9668 18.375 12.2812C18.4746 12.0293 18.8086 10.9922 18.2754 9.64453C17.4609 9.39258 15.5977 10.6934 15.5977 10.6934C14.8242 10.4766 13.9863 10.3652 13.1602 10.3652C12.334 10.3652 11.4961 10.4766 10.7227 10.6934C10.7227 10.6934 8.85938 9.39258 8.04492 9.64453C7.51172 10.9863 7.83984 12.0234 7.94531 12.2812C7.32422 12.9668 7.03125 13.5 7.03125 14.5664C7.03125 18.293 9.2168 18.6094 11.3848 18.8496C11.1035 19.1016 10.8516 19.5352 10.7637 20.1562C10.207 20.4082 8.7832 20.8418 7.93359 19.3418C7.40039 18.416 6.43945 18.3398 6.43945 18.3398C5.49023 18.3281 6.375 18.9375 6.375 18.9375C7.00781 19.2305 7.45312 20.3555 7.45312 20.3555C8.02148 22.0957 10.7402 21.5098 10.7402 21.5098C10.7402 22.3242 10.752 23.6484 10.752 23.8887C10.752 24.1406 10.5762 24.4453 10.0781 24.3574C6.21094 23.0625 3.50391 19.3828 3.50391 15.082C3.50391 9.70312 7.61719 5.61914 12.9961 5.61914C18.375 5.61914 22.7344 9.70312 22.7344 15.082C22.7402 19.3828 20.1152 23.0684 16.248 24.3574ZM10.5 20.7773C10.3887 20.8008 10.2832 20.7539 10.2715 20.6777C10.2598 20.5898 10.3359 20.5137 10.4473 20.4902C10.5586 20.4785 10.6641 20.5254 10.6758 20.6016C10.6934 20.6777 10.6172 20.7539 10.5 20.7773ZM9.94336 20.7246C9.94336 20.8008 9.85547 20.8652 9.73828 20.8652C9.60938 20.877 9.52148 20.8125 9.52148 20.7246C9.52148 20.6484 9.60938 20.584 9.72656 20.584C9.83789 20.5723 9.94336 20.6367 9.94336 20.7246ZM9.14062 20.6602C9.11719 20.7363 9 20.7715 8.90039 20.7363C8.78906 20.7129 8.71289 20.625 8.73633 20.5488C8.75977 20.4727 8.87695 20.4375 8.97656 20.4609C9.09375 20.4961 9.16992 20.584 9.14062 20.6602ZM8.41992 20.3438C8.36719 20.4082 8.25586 20.3965 8.16797 20.3086C8.08008 20.2324 8.05664 20.1211 8.11523 20.0684C8.16797 20.0039 8.2793 20.0156 8.36719 20.1035C8.44336 20.1797 8.47266 20.2969 8.41992 20.3438ZM7.88672 19.8105C7.83398 19.8457 7.73437 19.8105 7.66992 19.7227C7.60547 19.6348 7.60547 19.5352 7.66992 19.4941C7.73437 19.4414 7.83398 19.4824 7.88672 19.5703C7.95117 19.6582 7.95117 19.7637 7.88672 19.8105ZM7.50586 19.2422C7.45313 19.2949 7.36523 19.2656 7.30078 19.207C7.23633 19.1309 7.22461 19.043 7.27734 19.002C7.33008 18.9492 7.41797 18.9785 7.48242 19.0371C7.54688 19.1133 7.55859 19.2012 7.50586 19.2422ZM7.11328 18.8086C7.08984 18.8613 7.01367 18.873 6.94922 18.832C6.87305 18.7969 6.83789 18.7324 6.86133 18.6797C6.88477 18.6445 6.94922 18.627 7.02539 18.6562C7.10156 18.6973 7.13672 18.7617 7.11328 18.8086Z" fill="white"/>
</g>
<defs>
<clipPath id="clip0_142_403">
<rect width="26.25" height="30" fill="white"/>
</clipPath>
</defs>
</svg>
